<svg width="547" height="321" viewBox="0 0 547 321" fill="none" xmlns="http://www.w3.org/2000/svg">
<rect x="-0.5" y="0.5" width="49" height="49" rx="7.5" transform="matrix(-1 0 0 1 77 31)" fill="#17191F" fill-opacity="0.3" stroke="url(#paint0_linear_222_658)"/>
<path d="M40.25 67.3333C43.559 63.8237 48.0516 61.6667 53 61.6667C57.9484 61.6667 62.441 63.8237 65.75 67.3333M59.375 49.625C59.375 53.1458 56.5208 56 53 56C49.4792 56 46.625 53.1458 46.625 49.625C46.625 46.1042 49.4792 43.25 53 43.25C56.5208 43.25 59.375 46.1042 59.375 49.625Z" stroke="white" stroke-width="1.5" stroke-linecap="round" stroke-linejoin="round"/>
<rect x="28.5" y="101.5" width="489" height="49" rx="7.5" fill="#17191F" fill-opacity="0.3" stroke="url(#paint1_linear_222_658)"/>
<rect x="28.5" y="171.5" width="489" height="49" rx="7.5" fill="#17191F" fill-opacity="0.3" stroke="url(#paint2_linear_222_658)"/>
<rect x="28.5" y="241.5" width="489" height="49" rx="7.5" fill="#17191F" fill-opacity="0.3" stroke="url(#paint3_linear_222_658)"/>
<rect x="366" y="40" width="152" height="32" rx="16" fill="white"/>
<path d="M399.5 58.5V59.5C399.5 60.9001 399.5 61.6002 399.228 62.135C398.988 62.6054 398.605 62.9878 398.135 63.2275C397.6 63.5 396.9 63.5 395.5 63.5H388.5C387.1 63.5 386.4 63.5 385.865 63.2275C385.395 62.9878 385.012 62.6054 384.772 62.135C384.5 61.6002 384.5 60.9001 384.5 59.5V58.5M396.167 52.6667L392 48.5M392 48.5L387.833 52.6667M392 48.5V58.5" stroke="url(#paint4_linear_222_658)" stroke-width="1.5" stroke-linecap="round" stroke-linejoin="round"/>
<path d="M417.861 51.3182H419.706V57.9702C419.706 58.6993 419.533 59.3407 419.188 59.8942C418.847 60.4477 418.367 60.8802 417.747 61.1918C417.127 61.5 416.403 61.6541 415.574 61.6541C414.742 61.6541 414.016 61.5 413.397 61.1918C412.777 60.8802 412.296 60.4477 411.955 59.8942C411.613 59.3407 411.443 58.6993 411.443 57.9702V51.3182H413.287V57.8161C413.287 58.2403 413.38 58.6181 413.566 58.9496C413.755 59.281 414.02 59.5412 414.361 59.7301C414.702 59.9157 415.107 60.0085 415.574 60.0085C416.041 60.0085 416.446 59.9157 416.787 59.7301C417.132 59.5412 417.397 59.281 417.583 58.9496C417.768 58.6181 417.861 58.2403 417.861 57.8161V51.3182ZM421.631 64.3636V53.8636H423.401V55.1264H423.505C423.598 54.9408 423.729 54.7436 423.898 54.5348C424.067 54.3227 424.296 54.142 424.584 53.9929C424.872 53.8404 425.24 53.7642 425.688 53.7642C426.278 53.7642 426.81 53.915 427.283 54.2166C427.761 54.5149 428.139 54.9574 428.417 55.544C428.699 56.1274 428.84 56.8433 428.84 57.6918C428.84 58.5303 428.702 59.2429 428.427 59.8295C428.152 60.4162 427.777 60.8636 427.303 61.1719C426.829 61.4801 426.292 61.6342 425.693 61.6342C425.255 61.6342 424.892 61.5613 424.604 61.4155C424.315 61.2696 424.083 61.094 423.908 60.8885C423.735 60.6797 423.601 60.4825 423.505 60.2969H423.43V64.3636H421.631ZM423.396 57.6818C423.396 58.1757 423.465 58.6082 423.604 58.9794C423.747 59.3506 423.951 59.6406 424.216 59.8494C424.484 60.0549 424.809 60.1577 425.19 60.1577C425.588 60.1577 425.921 60.0516 426.19 59.8395C426.458 59.6241 426.66 59.3307 426.796 58.9595C426.935 58.585 427.005 58.1591 427.005 57.6818C427.005 57.2079 426.937 56.7869 426.801 56.419C426.665 56.0511 426.463 55.7628 426.195 55.554C425.926 55.3452 425.591 55.2408 425.19 55.2408C424.806 55.2408 424.479 55.3419 424.211 55.544C423.943 55.7462 423.739 56.0296 423.6 56.3942C423.464 56.7588 423.396 57.188 423.396 57.6818ZM432.18 51.3182V61.5H430.381V51.3182H432.18ZM437.362 61.6491C436.616 61.6491 435.97 61.4851 435.423 61.157C434.876 60.8288 434.452 60.3698 434.15 59.7798C433.852 59.1899 433.703 58.5005 433.703 57.7116C433.703 56.9228 433.852 56.2318 434.15 55.6385C434.452 55.0452 434.876 54.5845 435.423 54.2564C435.97 53.9283 436.616 53.7642 437.362 53.7642C438.108 53.7642 438.754 53.9283 439.301 54.2564C439.848 54.5845 440.271 55.0452 440.569 55.6385C440.87 56.2318 441.021 56.9228 441.021 57.7116C441.021 58.5005 440.87 59.1899 440.569 59.7798C440.271 60.3698 439.848 60.8288 439.301 61.157C438.754 61.4851 438.108 61.6491 437.362 61.6491ZM437.372 60.2074C437.776 60.2074 438.114 60.0964 438.386 59.8743C438.658 59.6489 438.86 59.3473 438.993 58.9695C439.129 58.5916 439.197 58.1707 439.197 57.7067C439.197 57.2393 439.129 56.8168 438.993 56.4389C438.86 56.0578 438.658 55.7545 438.386 55.5291C438.114 55.3037 437.776 55.1911 437.372 55.1911C436.958 55.1911 436.613 55.3037 436.338 55.5291C436.066 55.7545 435.862 56.0578 435.726 56.4389C435.594 56.8168 435.528 57.2393 435.528 57.7067C435.528 58.1707 435.594 58.5916 435.726 58.9695C435.862 59.3473 436.066 59.6489 436.338 59.8743C436.613 60.0964 436.958 60.2074 437.372 60.2074ZM444.746 61.6541C444.262 61.6541 443.826 61.5679 443.439 61.3956C443.054 61.2199 442.749 60.9614 442.524 60.62C442.302 60.2786 442.191 59.8577 442.191 59.3572C442.191 58.9264 442.27 58.5701 442.429 58.2884C442.589 58.0066 442.806 57.7812 443.081 57.6122C443.356 57.4432 443.666 57.3156 444.01 57.2294C444.358 57.1399 444.718 57.0753 445.089 57.0355C445.537 56.9891 445.9 56.9477 446.178 56.9112C446.456 56.8714 446.659 56.8118 446.785 56.7322C446.914 56.6494 446.978 56.5218 446.978 56.3494V56.3196C446.978 55.9451 446.867 55.6551 446.645 55.4496C446.423 55.2441 446.103 55.1413 445.686 55.1413C445.245 55.1413 444.895 55.2375 444.637 55.4297C444.382 55.6219 444.209 55.849 444.12 56.1108L442.439 55.8722C442.572 55.4081 442.791 55.0204 443.096 54.7088C443.401 54.3939 443.773 54.1586 444.214 54.0028C444.655 53.8438 445.142 53.7642 445.676 53.7642C446.044 53.7642 446.41 53.8073 446.775 53.8935C447.139 53.9796 447.472 54.1222 447.774 54.321C448.075 54.5166 448.317 54.7834 448.5 55.1214C448.685 55.4595 448.778 55.8821 448.778 56.3892V61.5H447.048V60.451H446.988C446.879 60.6631 446.725 60.862 446.526 61.0476C446.33 61.2299 446.084 61.3774 445.785 61.4901C445.49 61.5994 445.144 61.6541 444.746 61.6541ZM445.214 60.3317C445.575 60.3317 445.888 60.2604 446.153 60.1179C446.418 59.9721 446.622 59.7798 446.765 59.5412C446.91 59.3026 446.983 59.0424 446.983 58.7607V57.8608C446.927 57.9072 446.831 57.9503 446.695 57.9901C446.562 58.0298 446.413 58.0646 446.248 58.0945C446.082 58.1243 445.918 58.1508 445.755 58.174C445.593 58.1972 445.452 58.2171 445.333 58.2337C445.064 58.2701 444.824 58.3298 444.612 58.4126C444.4 58.4955 444.232 58.6115 444.11 58.7607C443.987 58.9065 443.926 59.0954 443.926 59.3274C443.926 59.6589 444.047 59.9091 444.289 60.0781C444.531 60.2472 444.839 60.3317 445.214 60.3317ZM453.422 61.6342C452.822 61.6342 452.285 61.4801 451.811 61.1719C451.337 60.8636 450.962 60.4162 450.687 59.8295C450.412 59.2429 450.275 58.5303 450.275 57.6918C450.275 56.8433 450.414 56.1274 450.692 55.544C450.974 54.9574 451.353 54.5149 451.831 54.2166C452.308 53.915 452.84 53.7642 453.427 53.7642C453.874 53.7642 454.242 53.8404 454.53 53.9929C454.819 54.142 455.047 54.3227 455.216 54.5348C455.385 54.7436 455.516 54.9408 455.609 55.1264H455.684V51.3182H457.488V61.5H455.718V60.2969H455.609C455.516 60.4825 455.382 60.6797 455.206 60.8885C455.031 61.094 454.799 61.2696 454.51 61.4155C454.222 61.5613 453.859 61.6342 453.422 61.6342ZM453.924 60.1577C454.305 60.1577 454.63 60.0549 454.898 59.8494C455.167 59.6406 455.37 59.3506 455.51 58.9794C455.649 58.6082 455.718 58.1757 455.718 57.6818C455.718 57.188 455.649 56.7588 455.51 56.3942C455.374 56.0296 455.172 55.7462 454.903 55.544C454.638 55.3419 454.312 55.2408 453.924 55.2408C453.523 55.2408 453.188 55.3452 452.919 55.554C452.651 55.7628 452.449 56.0511 452.313 56.419C452.177 56.7869 452.109 57.2079 452.109 57.6818C452.109 58.1591 452.177 58.585 452.313 58.9595C452.452 59.3307 452.656 59.6241 452.924 59.8395C453.196 60.0516 453.529 60.1577 453.924 60.1577ZM462.879 64.3636V53.8636H464.649V55.1264H464.753C464.846 54.9408 464.977 54.7436 465.146 54.5348C465.315 54.3227 465.544 54.142 465.832 53.9929C466.12 53.8404 466.488 53.7642 466.936 53.7642C467.526 53.7642 468.058 53.915 468.532 54.2166C469.009 54.5149 469.387 54.9574 469.665 55.544C469.947 56.1274 470.088 56.8433 470.088 57.6918C470.088 58.5303 469.95 59.2429 469.675 59.8295C469.4 60.4162 469.025 60.8636 468.551 61.1719C468.077 61.4801 467.541 61.6342 466.941 61.6342C466.503 61.6342 466.14 61.5613 465.852 61.4155C465.563 61.2696 465.331 61.094 465.156 60.8885C464.983 60.6797 464.849 60.4825 464.753 60.2969H464.679V64.3636H462.879ZM464.644 57.6818C464.644 58.1757 464.713 58.6082 464.853 58.9794C464.995 59.3506 465.199 59.6406 465.464 59.8494C465.733 60.0549 466.057 60.1577 466.438 60.1577C466.836 60.1577 467.169 60.0516 467.438 59.8395C467.706 59.6241 467.908 59.3307 468.044 58.9595C468.184 58.585 468.253 58.1591 468.253 57.6818C468.253 57.2079 468.185 56.7869 468.049 56.419C467.913 56.0511 467.711 55.7628 467.443 55.554C467.174 55.3452 466.84 55.2408 466.438 55.2408C466.054 55.2408 465.728 55.3419 465.459 55.544C465.191 55.7462 464.987 56.0296 464.848 56.3942C464.712 56.7588 464.644 57.188 464.644 57.6818ZM473.429 57.0256V61.5H471.629V51.3182H473.389V55.1612H473.478C473.657 54.7304 473.934 54.3906 474.309 54.142C474.686 53.8902 475.167 53.7642 475.75 53.7642C476.281 53.7642 476.743 53.8752 477.137 54.0973C477.532 54.3194 477.837 54.6442 478.052 55.0717C478.271 55.4993 478.38 56.0213 478.38 56.6378V61.5H476.581V56.9162C476.581 56.4025 476.448 56.0031 476.183 55.718C475.921 55.4297 475.553 55.2855 475.079 55.2855C474.761 55.2855 474.476 55.3551 474.224 55.4943C473.975 55.6302 473.78 55.8274 473.637 56.0859C473.498 56.3445 473.429 56.6577 473.429 57.0256ZM483.546 61.6491C482.8 61.6491 482.154 61.4851 481.607 61.157C481.06 60.8288 480.636 60.3698 480.334 59.7798C480.036 59.1899 479.887 58.5005 479.887 57.7116C479.887 56.9228 480.036 56.2318 480.334 55.6385C480.636 55.0452 481.06 54.5845 481.607 54.2564C482.154 53.9283 482.8 53.7642 483.546 53.7642C484.291 53.7642 484.938 53.9283 485.485 54.2564C486.032 54.5845 486.454 55.0452 486.752 55.6385C487.054 56.2318 487.205 56.9228 487.205 57.7116C487.205 58.5005 487.054 59.1899 486.752 59.7798C486.454 60.3698 486.032 60.8288 485.485 61.157C484.938 61.4851 484.291 61.6491 483.546 61.6491ZM483.556 60.2074C483.96 60.2074 484.298 60.0964 484.57 59.8743C484.842 59.6489 485.044 59.3473 485.176 58.9695C485.312 58.5916 485.38 58.1707 485.38 57.7067C485.38 57.2393 485.312 56.8168 485.176 56.4389C485.044 56.0578 484.842 55.7545 484.57 55.5291C484.298 55.3037 483.96 55.1911 483.556 55.1911C483.141 55.1911 482.797 55.3037 482.522 55.5291C482.25 55.7545 482.046 56.0578 481.91 56.4389C481.777 56.8168 481.711 57.2393 481.711 57.7067C481.711 58.1707 481.777 58.5916 481.91 58.9695C482.046 59.3473 482.25 59.6489 482.522 59.8743C482.797 60.0964 483.141 60.2074 483.556 60.2074ZM492.546 53.8636V55.2557H488.156V53.8636H492.546ZM489.239 52.0341H491.039V59.2031C491.039 59.4451 491.076 59.6307 491.149 59.7599C491.225 59.8859 491.324 59.9721 491.447 60.0185C491.569 60.0649 491.705 60.0881 491.854 60.0881C491.967 60.0881 492.07 60.0798 492.163 60.0632C492.259 60.0466 492.332 60.0317 492.381 60.0185L492.685 61.4254C492.589 61.4586 492.451 61.495 492.272 61.5348C492.096 61.5746 491.881 61.5978 491.626 61.6044C491.175 61.6177 490.769 61.5497 490.408 61.4006C490.046 61.2481 489.76 61.0128 489.548 60.6946C489.339 60.3764 489.236 59.9787 489.239 59.5014V52.0341ZM497.3 61.6491C496.554 61.6491 495.908 61.4851 495.361 61.157C494.814 60.8288 494.39 60.3698 494.088 59.7798C493.79 59.1899 493.641 58.5005 493.641 57.7116C493.641 56.9228 493.79 56.2318 494.088 55.6385C494.39 55.0452 494.814 54.5845 495.361 54.2564C495.908 53.9283 496.554 53.7642 497.3 53.7642C498.045 53.7642 498.692 53.9283 499.239 54.2564C499.785 54.5845 500.208 55.0452 500.506 55.6385C500.808 56.2318 500.959 56.9228 500.959 57.7116C500.959 58.5005 500.808 59.1899 500.506 59.7798C500.208 60.3698 499.785 60.8288 499.239 61.157C498.692 61.4851 498.045 61.6491 497.3 61.6491ZM497.31 60.2074C497.714 60.2074 498.052 60.0964 498.324 59.8743C498.596 59.6489 498.798 59.3473 498.93 58.9695C499.066 58.5916 499.134 58.1707 499.134 57.7067C499.134 57.2393 499.066 56.8168 498.93 56.4389C498.798 56.0578 498.596 55.7545 498.324 55.5291C498.052 55.3037 497.714 55.1911 497.31 55.1911C496.895 55.1911 496.551 55.3037 496.275 55.5291C496.004 55.7545 495.8 56.0578 495.664 56.4389C495.531 56.8168 495.465 57.2393 495.465 57.7067C495.465 58.1707 495.531 58.5916 495.664 58.9695C495.8 59.3473 496.004 59.6489 496.275 59.8743C496.551 60.0964 496.895 60.2074 497.31 60.2074Z" fill="#0D0E11"/>
<path d="M114.81 56.4545C114.81 57.8523 114.554 59.054 114.043 60.0597C113.531 61.0611 112.83 61.8324 111.94 62.3736C111.053 62.9105 110.045 63.179 108.916 63.179C107.783 63.179 106.771 62.9105 105.88 62.3736C104.994 61.8324 104.295 61.0589 103.783 60.0533C103.272 59.0476 103.016 57.848 103.016 56.4545C103.016 55.0568 103.272 53.8572 103.783 52.8558C104.295 51.8501 104.994 51.0788 105.88 50.5419C106.771 50.0007 107.783 49.7301 108.916 49.7301C110.045 49.7301 111.053 50.0007 111.94 50.5419C112.83 51.0788 113.531 51.8501 114.043 52.8558C114.554 53.8572 114.81 55.0568 114.81 56.4545ZM112.854 56.4545C112.854 55.3892 112.681 54.4922 112.336 53.7635C111.995 53.0305 111.526 52.4766 110.93 52.1016C110.337 51.7223 109.666 51.5327 108.916 51.5327C108.162 51.5327 107.489 51.7223 106.896 52.1016C106.304 52.4766 105.835 53.0305 105.49 53.7635C105.149 54.4922 104.979 55.3892 104.979 56.4545C104.979 57.5199 105.149 58.419 105.49 59.152C105.835 59.8807 106.304 60.4347 106.896 60.8139C107.489 61.1889 108.162 61.3764 108.916 61.3764C109.666 61.3764 110.337 61.1889 110.93 60.8139C111.526 60.4347 111.995 59.8807 112.336 59.152C112.681 58.419 112.854 57.5199 112.854 56.4545ZM119.03 49.9091V63H117.119V49.9091H119.03ZM121.601 63V53.1818H123.512V63H121.601ZM122.566 51.6669C122.234 51.6669 121.949 51.5561 121.71 51.3345C121.475 51.1087 121.358 50.8402 121.358 50.5291C121.358 50.2138 121.475 49.9453 121.71 49.7237C121.949 49.4979 122.234 49.3849 122.566 49.3849C122.899 49.3849 123.182 49.4979 123.417 49.7237C123.655 49.9453 123.775 50.2138 123.775 50.5291C123.775 50.8402 123.655 51.1087 123.417 51.3345C123.182 51.5561 122.899 51.6669 122.566 51.6669ZM134.483 53.1818L130.922 63H128.877L125.31 53.1818H127.362L129.849 60.7372H129.951L132.431 53.1818H134.483ZM140.176 63.1982C139.209 63.1982 138.376 62.9915 137.677 62.5781C136.983 62.1605 136.446 61.5746 136.066 60.8203C135.691 60.0618 135.504 59.1733 135.504 58.1548C135.504 57.1491 135.691 56.2628 136.066 55.4957C136.446 54.7287 136.974 54.13 137.652 53.6996C138.333 53.2692 139.13 53.054 140.042 53.054C140.596 53.054 141.133 53.1456 141.653 53.3288C142.173 53.5121 142.64 53.7997 143.053 54.1918C143.466 54.5838 143.792 55.093 144.031 55.7195C144.27 56.3416 144.389 57.098 144.389 57.9886V58.6662H136.584V57.2344H142.516C142.516 56.7315 142.414 56.2862 142.209 55.8984C142.005 55.5064 141.717 55.1974 141.346 54.9716C140.98 54.7457 140.549 54.6328 140.055 54.6328C139.518 54.6328 139.049 54.7649 138.649 55.0291C138.252 55.2891 137.946 55.63 137.728 56.0518C137.515 56.4695 137.409 56.9233 137.409 57.4134V58.532C137.409 59.1882 137.524 59.7464 137.754 60.2067C137.988 60.6669 138.314 61.0185 138.732 61.2614C139.15 61.5 139.637 61.6193 140.196 61.6193C140.558 61.6193 140.888 61.5682 141.186 61.4659C141.485 61.3594 141.743 61.2017 141.96 60.9929C142.177 60.7841 142.343 60.5263 142.458 60.2195L144.267 60.5455C144.123 61.0781 143.863 61.5447 143.488 61.9453C143.117 62.3416 142.65 62.6506 142.088 62.8722C141.529 63.0895 140.892 63.1982 140.176 63.1982ZM146.509 63V53.1818H148.357V54.7415H148.459C148.638 54.2131 148.953 53.7976 149.405 53.495C149.861 53.1882 150.377 53.0348 150.952 53.0348C151.071 53.0348 151.212 53.0391 151.374 53.0476C151.54 53.0561 151.67 53.0668 151.764 53.0795V54.9077C151.687 54.8864 151.551 54.8629 151.355 54.8374C151.159 54.8075 150.963 54.7926 150.767 54.7926C150.315 54.7926 149.912 54.8885 149.558 55.0803C149.209 55.2678 148.932 55.5298 148.727 55.8665C148.523 56.1989 148.421 56.5781 148.421 57.0043V63H146.509ZM158.335 63V49.9091H166.453V51.6094H160.31V55.598H165.871V57.2919H160.31V63H158.335ZM172.143 63.1982C171.223 63.1982 170.419 62.9872 169.733 62.5653C169.047 62.1435 168.515 61.5533 168.135 60.7947C167.756 60.0362 167.566 59.1499 167.566 58.1357C167.566 57.1172 167.756 56.2266 168.135 55.4638C168.515 54.701 169.047 54.1087 169.733 53.6868C170.419 53.2649 171.223 53.054 172.143 53.054C173.064 53.054 173.867 53.2649 174.553 53.6868C175.239 54.1087 175.772 54.701 176.151 55.4638C176.53 56.2266 176.72 57.1172 176.72 58.1357C176.72 59.1499 176.53 60.0362 176.151 60.7947C175.772 61.5533 175.239 62.1435 174.553 62.5653C173.867 62.9872 173.064 63.1982 172.143 63.1982ZM172.15 61.5938C172.746 61.5938 173.24 61.4361 173.632 61.1207C174.025 60.8054 174.314 60.3857 174.502 59.8615C174.694 59.3374 174.789 58.7599 174.789 58.1293C174.789 57.5028 174.694 56.9276 174.502 56.4034C174.314 55.875 174.025 55.451 173.632 55.1314C173.24 54.8118 172.746 54.652 172.15 54.652C171.549 54.652 171.05 54.8118 170.654 55.1314C170.262 55.451 169.97 55.875 169.778 56.4034C169.591 56.9276 169.497 57.5028 169.497 58.1293C169.497 58.7599 169.591 59.3374 169.778 59.8615C169.97 60.3857 170.262 60.8054 170.654 61.1207C171.05 61.4361 171.549 61.5938 172.15 61.5938ZM178.853 63V53.1818H180.7V54.7415H180.803C180.982 54.2131 181.297 53.7976 181.749 53.495C182.205 53.1882 182.72 53.0348 183.296 53.0348C183.415 53.0348 183.556 53.0391 183.718 53.0476C183.884 53.0561 184.014 53.0668 184.107 53.0795V54.9077C184.031 54.8864 183.894 54.8629 183.698 54.8374C183.502 54.8075 183.306 54.7926 183.11 54.7926C182.659 54.7926 182.256 54.8885 181.902 55.0803C181.553 55.2678 181.276 55.5298 181.071 55.8665C180.867 56.1989 180.764 56.5781 180.764 57.0043V63H178.853ZM193.119 55.5788L191.386 55.8857C191.314 55.6641 191.199 55.4531 191.041 55.2528C190.888 55.0526 190.679 54.8885 190.415 54.7607C190.151 54.6328 189.82 54.5689 189.424 54.5689C188.883 54.5689 188.431 54.6903 188.069 54.9332C187.707 55.1719 187.526 55.4808 187.526 55.8601C187.526 56.1882 187.647 56.4524 187.89 56.6527C188.133 56.853 188.525 57.017 189.066 57.1449L190.626 57.5028C191.529 57.7116 192.202 58.0334 192.646 58.468C193.089 58.9027 193.31 59.4673 193.31 60.1619C193.31 60.75 193.14 61.2741 192.799 61.7344C192.462 62.1903 191.991 62.5483 191.386 62.8082C190.786 63.0682 190.089 63.1982 189.296 63.1982C188.197 63.1982 187.3 62.9638 186.605 62.495C185.911 62.022 185.484 61.3509 185.327 60.4815L187.174 60.2003C187.289 60.6818 187.526 61.0462 187.884 61.2933C188.241 61.5362 188.708 61.6577 189.283 61.6577C189.91 61.6577 190.411 61.5277 190.786 61.2678C191.161 61.0036 191.348 60.6818 191.348 60.3026C191.348 59.9957 191.233 59.7379 191.003 59.5291C190.777 59.3203 190.43 59.1626 189.961 59.0561L188.299 58.6918C187.383 58.483 186.705 58.1506 186.266 57.6946C185.832 57.2386 185.614 56.6612 185.614 55.9624C185.614 55.3828 185.776 54.8757 186.1 54.4411C186.424 54.0064 186.871 53.6676 187.442 53.4247C188.013 53.1776 188.668 53.054 189.405 53.054C190.466 53.054 191.301 53.2841 191.911 53.7443C192.52 54.2003 192.923 54.8118 193.119 55.5788ZM197.323 49.9091V63H195.412V49.9091H197.323ZM199.894 63V53.1818H201.805V63H199.894ZM200.859 51.6669C200.527 51.6669 200.241 51.5561 200.003 51.3345C199.768 51.1087 199.651 50.8402 199.651 50.5291C199.651 50.2138 199.768 49.9453 200.003 49.7237C200.241 49.4979 200.527 49.3849 200.859 49.3849C201.192 49.3849 201.475 49.4979 201.71 49.7237C201.948 49.9453 202.067 50.2138 202.067 50.5291C202.067 50.8402 201.948 51.1087 201.71 51.3345C201.475 51.5561 201.192 51.6669 200.859 51.6669ZM206.288 57.1705V63H204.377V53.1818H206.211V54.7798H206.333C206.558 54.2599 206.912 53.8423 207.394 53.527C207.879 53.2116 208.491 53.054 209.228 53.054C209.897 53.054 210.483 53.1946 210.986 53.4759C211.489 53.7528 211.879 54.1662 212.156 54.7159C212.433 55.2656 212.571 55.9453 212.571 56.755V63H210.66V56.9851C210.66 56.2734 210.475 55.7173 210.104 55.3168C209.733 54.9119 209.224 54.7095 208.576 54.7095C208.133 54.7095 207.739 54.8054 207.394 54.9972C207.053 55.1889 206.782 55.4702 206.582 55.8409C206.386 56.2074 206.288 56.6506 206.288 57.1705Z" fill="white"/>
<path d="M49.4091 132V120.364H56.3864V121.614H50.8182V125.545H55.8636V126.795H50.8182V132H49.4091ZM63.571 128.432V123.273H64.9119V132H63.571V130.523H63.4801C63.2756 130.966 62.9574 131.343 62.5256 131.653C62.0938 131.96 61.5483 132.114 60.8892 132.114C60.3438 132.114 59.8589 131.994 59.4347 131.756C59.0104 131.513 58.6771 131.15 58.4347 130.665C58.1922 130.176 58.071 129.561 58.071 128.818V123.273H59.4119V128.727C59.4119 129.364 59.59 129.871 59.946 130.25C60.3059 130.629 60.7642 130.818 61.321 130.818C61.6544 130.818 61.9934 130.733 62.3381 130.562C62.6866 130.392 62.9782 130.131 63.2131 129.778C63.4517 129.426 63.571 128.977 63.571 128.432ZM68.7088 120.364V132H67.3679V120.364H68.7088ZM72.5057 120.364V132H71.1648V120.364H72.5057ZM80.8026 126.75V132H79.4616V123.273H80.7571V124.636H80.8707C81.0753 124.193 81.3859 123.837 81.8026 123.568C82.2192 123.295 82.7571 123.159 83.4162 123.159C84.0071 123.159 84.5241 123.28 84.9673 123.523C85.4105 123.761 85.7552 124.125 86.0014 124.614C86.2476 125.098 86.3707 125.712 86.3707 126.455V132H85.0298V126.545C85.0298 125.86 84.8518 125.326 84.4957 124.943C84.1397 124.557 83.651 124.364 83.0298 124.364C82.6018 124.364 82.2192 124.456 81.8821 124.642C81.5488 124.828 81.2855 125.098 81.0923 125.455C80.8991 125.811 80.8026 126.242 80.8026 126.75ZM91.3892 132.205C90.8362 132.205 90.3343 132.1 89.8835 131.892C89.4328 131.68 89.0748 131.375 88.8097 130.977C88.5445 130.576 88.4119 130.091 88.4119 129.523C88.4119 129.023 88.5104 128.617 88.7074 128.307C88.9044 127.992 89.1676 127.746 89.4972 127.568C89.8267 127.39 90.1903 127.258 90.5881 127.17C90.9896 127.08 91.393 127.008 91.7983 126.955C92.3286 126.886 92.7585 126.835 93.0881 126.801C93.4214 126.763 93.6638 126.701 93.8153 126.614C93.9706 126.527 94.0483 126.375 94.0483 126.159V126.114C94.0483 125.553 93.8949 125.117 93.5881 124.807C93.285 124.496 92.8248 124.341 92.2074 124.341C91.5672 124.341 91.0653 124.481 90.7017 124.761C90.3381 125.042 90.0824 125.341 89.9347 125.659L88.6619 125.205C88.8892 124.674 89.1922 124.261 89.571 123.966C89.9536 123.667 90.3703 123.458 90.821 123.341C91.2756 123.22 91.7225 123.159 92.1619 123.159C92.4422 123.159 92.7642 123.193 93.1278 123.261C93.4953 123.326 93.8494 123.46 94.1903 123.665C94.535 123.869 94.821 124.178 95.0483 124.591C95.2756 125.004 95.3892 125.557 95.3892 126.25V132H94.0483V130.818H93.9801C93.8892 131.008 93.7377 131.21 93.5256 131.426C93.3134 131.642 93.0313 131.826 92.679 131.977C92.3267 132.129 91.8968 132.205 91.3892 132.205ZM91.5938 131C92.1241 131 92.571 130.896 92.9347 130.688C93.3021 130.479 93.5786 130.21 93.7642 129.881C93.9536 129.551 94.0483 129.205 94.0483 128.841V127.614C93.9915 127.682 93.8665 127.744 93.6733 127.801C93.4839 127.854 93.2642 127.902 93.0142 127.943C92.768 127.981 92.5275 128.015 92.2926 128.045C92.0616 128.072 91.8741 128.095 91.7301 128.114C91.3816 128.159 91.0559 128.233 90.7528 128.335C90.4536 128.434 90.2112 128.583 90.0256 128.784C89.8438 128.981 89.7528 129.25 89.7528 129.591C89.7528 130.057 89.9252 130.409 90.2699 130.648C90.6184 130.883 91.0597 131 91.5938 131ZM97.8366 132V123.273H99.1321V124.636H99.2457C99.4276 124.17 99.7211 123.809 100.126 123.551C100.532 123.29 101.018 123.159 101.587 123.159C102.162 123.159 102.642 123.29 103.024 123.551C103.411 123.809 103.712 124.17 103.928 124.636H104.018C104.242 124.186 104.577 123.828 105.024 123.562C105.471 123.294 106.007 123.159 106.632 123.159C107.412 123.159 108.051 123.403 108.547 123.892C109.043 124.377 109.291 125.133 109.291 126.159V132H107.95V126.159C107.95 125.515 107.774 125.055 107.422 124.778C107.07 124.502 106.655 124.364 106.178 124.364C105.564 124.364 105.089 124.549 104.751 124.92C104.414 125.288 104.246 125.754 104.246 126.318V132H102.882V126.023C102.882 125.527 102.721 125.127 102.399 124.824C102.077 124.517 101.662 124.364 101.155 124.364C100.806 124.364 100.481 124.456 100.178 124.642C99.8783 124.828 99.6359 125.085 99.4503 125.415C99.2685 125.741 99.1776 126.117 99.1776 126.545V132H97.8366ZM115.402 132.182C114.561 132.182 113.836 131.996 113.226 131.625C112.62 131.25 112.152 130.727 111.822 130.057C111.497 129.383 111.334 128.598 111.334 127.705C111.334 126.811 111.497 126.023 111.822 125.341C112.152 124.655 112.61 124.121 113.197 123.739C113.788 123.352 114.478 123.159 115.266 123.159C115.72 123.159 116.169 123.235 116.612 123.386C117.055 123.538 117.459 123.784 117.822 124.125C118.186 124.462 118.476 124.909 118.692 125.466C118.908 126.023 119.016 126.708 119.016 127.523V128.091H112.288V126.932H117.652C117.652 126.439 117.554 126 117.357 125.614C117.163 125.227 116.887 124.922 116.527 124.699C116.171 124.475 115.75 124.364 115.266 124.364C114.732 124.364 114.269 124.496 113.879 124.761C113.493 125.023 113.196 125.364 112.987 125.784C112.779 126.205 112.675 126.655 112.675 127.136V127.909C112.675 128.568 112.788 129.127 113.016 129.585C113.247 130.04 113.567 130.386 113.976 130.625C114.385 130.86 114.86 130.977 115.402 130.977C115.754 130.977 116.072 130.928 116.357 130.83C116.644 130.727 116.893 130.576 117.101 130.375C117.309 130.17 117.47 129.917 117.584 129.614L118.879 129.977C118.743 130.417 118.514 130.803 118.192 131.136C117.87 131.466 117.472 131.723 116.999 131.909C116.525 132.091 115.993 132.182 115.402 132.182Z" fill="#848484"/>
<path d="M49.4091 202V190.364H56.4318V191.614H50.8182V195.545H56.0682V196.795H50.8182V200.75H56.5227V202H49.4091ZM58.7898 202V193.273H60.0852V194.636H60.1989C60.3807 194.17 60.6742 193.809 61.0795 193.551C61.4848 193.29 61.9716 193.159 62.5398 193.159C63.1155 193.159 63.5947 193.29 63.9773 193.551C64.3636 193.809 64.6648 194.17 64.8807 194.636H64.9716C65.1951 194.186 65.5303 193.828 65.9773 193.562C66.4242 193.294 66.9602 193.159 67.5852 193.159C68.3655 193.159 69.0038 193.403 69.5 193.892C69.9962 194.377 70.2443 195.133 70.2443 196.159V202H68.9034V196.159C68.9034 195.515 68.7273 195.055 68.375 194.778C68.0227 194.502 67.608 194.364 67.1307 194.364C66.517 194.364 66.0417 194.549 65.7045 194.92C65.3674 195.288 65.1989 195.754 65.1989 196.318V202H63.8352V196.023C63.8352 195.527 63.6742 195.127 63.3523 194.824C63.0303 194.517 62.6155 194.364 62.108 194.364C61.7595 194.364 61.4337 194.456 61.1307 194.642C60.8314 194.828 60.589 195.085 60.4034 195.415C60.2216 195.741 60.1307 196.117 60.1307 196.545V202H58.7898ZM75.2642 202.205C74.7112 202.205 74.2093 202.1 73.7585 201.892C73.3078 201.68 72.9498 201.375 72.6847 200.977C72.4195 200.576 72.2869 200.091 72.2869 199.523C72.2869 199.023 72.3854 198.617 72.5824 198.307C72.7794 197.992 73.0426 197.746 73.3722 197.568C73.7017 197.39 74.0653 197.258 74.4631 197.17C74.8646 197.08 75.268 197.008 75.6733 196.955C76.2036 196.886 76.6335 196.835 76.9631 196.801C77.2964 196.763 77.5388 196.701 77.6903 196.614C77.8456 196.527 77.9233 196.375 77.9233 196.159V196.114C77.9233 195.553 77.7699 195.117 77.4631 194.807C77.16 194.496 76.6998 194.341 76.0824 194.341C75.4422 194.341 74.9403 194.481 74.5767 194.761C74.2131 195.042 73.9574 195.341 73.8097 195.659L72.5369 195.205C72.7642 194.674 73.0672 194.261 73.446 193.966C73.8286 193.667 74.2453 193.458 74.696 193.341C75.1506 193.22 75.5975 193.159 76.0369 193.159C76.3172 193.159 76.6392 193.193 77.0028 193.261C77.3703 193.326 77.7244 193.46 78.0653 193.665C78.41 193.869 78.696 194.178 78.9233 194.591C79.1506 195.004 79.2642 195.557 79.2642 196.25V202H77.9233V200.818H77.8551C77.7642 201.008 77.6127 201.21 77.4006 201.426C77.1884 201.642 76.9063 201.826 76.554 201.977C76.2017 202.129 75.7718 202.205 75.2642 202.205ZM75.4688 201C75.9991 201 76.446 200.896 76.8097 200.688C77.1771 200.479 77.4536 200.21 77.6392 199.881C77.8286 199.551 77.9233 199.205 77.9233 198.841V197.614C77.8665 197.682 77.7415 197.744 77.5483 197.801C77.3589 197.854 77.1392 197.902 76.8892 197.943C76.643 197.981 76.4025 198.015 76.1676 198.045C75.9366 198.072 75.7491 198.095 75.6051 198.114C75.2566 198.159 74.9309 198.233 74.6278 198.335C74.3286 198.434 74.0862 198.583 73.9006 198.784C73.7188 198.981 73.6278 199.25 73.6278 199.591C73.6278 200.057 73.8002 200.409 74.1449 200.648C74.4934 200.883 74.9347 201 75.4688 201ZM81.7116 202V193.273H83.0526V202H81.7116ZM82.3935 191.818C82.1321 191.818 81.9067 191.729 81.7173 191.551C81.5317 191.373 81.4389 191.159 81.4389 190.909C81.4389 190.659 81.5317 190.445 81.7173 190.267C81.9067 190.089 82.1321 190 82.3935 190C82.6548 190 82.8783 190.089 83.0639 190.267C83.2533 190.445 83.348 190.659 83.348 190.909C83.348 191.159 83.2533 191.373 83.0639 191.551C82.8783 191.729 82.6548 191.818 82.3935 191.818ZM86.8494 190.364V202H85.5085V190.364H86.8494Z" fill="#848484"/>
<path d="M49.4091 272V260.364H53.3409C54.2538 260.364 55 260.528 55.5795 260.858C56.1629 261.184 56.5947 261.625 56.875 262.182C57.1553 262.739 57.2955 263.36 57.2955 264.045C57.2955 264.731 57.1553 265.354 56.875 265.915C56.5985 266.475 56.1705 266.922 55.5909 267.256C55.0114 267.585 54.2689 267.75 53.3636 267.75H50.5455V266.5H53.3182C53.9432 266.5 54.4451 266.392 54.8239 266.176C55.2027 265.96 55.4773 265.669 55.6477 265.301C55.822 264.93 55.9091 264.511 55.9091 264.045C55.9091 263.58 55.822 263.163 55.6477 262.795C55.4773 262.428 55.2008 262.14 54.8182 261.932C54.4356 261.72 53.928 261.614 53.2955 261.614H50.8182V272H49.4091ZM62.8352 272.182C62.0473 272.182 61.3561 271.994 60.7614 271.619C60.1705 271.244 59.7083 270.72 59.375 270.045C59.0455 269.371 58.8807 268.583 58.8807 267.682C58.8807 266.773 59.0455 265.979 59.375 265.301C59.7083 264.623 60.1705 264.097 60.7614 263.722C61.3561 263.347 62.0473 263.159 62.8352 263.159C63.6231 263.159 64.3125 263.347 64.9034 263.722C65.4981 264.097 65.9602 264.623 66.2898 265.301C66.6231 265.979 66.7898 266.773 66.7898 267.682C66.7898 268.583 66.6231 269.371 66.2898 270.045C65.9602 270.72 65.4981 271.244 64.9034 271.619C64.3125 271.994 63.6231 272.182 62.8352 272.182ZM62.8352 270.977C63.4337 270.977 63.9261 270.824 64.3125 270.517C64.6989 270.21 64.9848 269.807 65.1705 269.307C65.3561 268.807 65.4489 268.265 65.4489 267.682C65.4489 267.098 65.3561 266.555 65.1705 266.051C64.9848 265.547 64.6989 265.14 64.3125 264.83C63.9261 264.519 63.4337 264.364 62.8352 264.364C62.2367 264.364 61.7443 264.519 61.358 264.83C60.9716 265.14 60.6856 265.547 60.5 266.051C60.3144 266.555 60.2216 267.098 60.2216 267.682C60.2216 268.265 60.3144 268.807 60.5 269.307C60.6856 269.807 60.9716 270.21 61.358 270.517C61.7443 270.824 62.2367 270.977 62.8352 270.977ZM75.0185 265.227L73.8139 265.568C73.7382 265.367 73.6264 265.172 73.4787 264.983C73.3348 264.79 73.1378 264.631 72.8878 264.506C72.6378 264.381 72.3177 264.318 71.9276 264.318C71.3935 264.318 70.9484 264.441 70.5923 264.688C70.2401 264.93 70.0639 265.239 70.0639 265.614C70.0639 265.947 70.1851 266.21 70.4276 266.403C70.67 266.597 71.0488 266.758 71.5639 266.886L72.8594 267.205C73.6397 267.394 74.2211 267.684 74.6037 268.074C74.9863 268.46 75.1776 268.958 75.1776 269.568C75.1776 270.068 75.0336 270.515 74.7457 270.909C74.4616 271.303 74.0639 271.614 73.5526 271.841C73.0412 272.068 72.4465 272.182 71.7685 272.182C70.8783 272.182 70.1416 271.989 69.5582 271.602C68.9749 271.216 68.6056 270.652 68.4503 269.909L69.723 269.591C69.8442 270.061 70.0734 270.413 70.4105 270.648C70.7514 270.883 71.1965 271 71.7457 271C72.3707 271 72.867 270.867 73.2344 270.602C73.6056 270.333 73.7912 270.011 73.7912 269.636C73.7912 269.333 73.6851 269.08 73.473 268.875C73.2609 268.667 72.9351 268.511 72.4957 268.409L71.0412 268.068C70.242 267.879 69.6548 267.585 69.2798 267.188C68.9086 266.786 68.723 266.284 68.723 265.682C68.723 265.189 68.8613 264.754 69.1378 264.375C69.4181 263.996 69.7988 263.699 70.2798 263.483C70.7647 263.267 71.3139 263.159 71.9276 263.159C72.7912 263.159 73.4692 263.348 73.9616 263.727C74.4579 264.106 74.8101 264.606 75.0185 265.227ZM77.196 272V263.273H78.5369V272H77.196ZM77.8778 261.818C77.6165 261.818 77.3911 261.729 77.2017 261.551C77.0161 261.373 76.9233 261.159 76.9233 260.909C76.9233 260.659 77.0161 260.445 77.2017 260.267C77.3911 260.089 77.6165 260 77.8778 260C78.1392 260 78.3627 260.089 78.5483 260.267C78.7377 260.445 78.8324 260.659 78.8324 260.909C78.8324 261.159 78.7377 261.373 78.5483 261.551C78.3627 261.729 78.1392 261.818 77.8778 261.818ZM84.7884 263.273V264.409H80.2656V263.273H84.7884ZM81.5838 261.182H82.9247V269.5C82.9247 269.879 82.9796 270.163 83.0895 270.352C83.2031 270.538 83.3471 270.663 83.5213 270.727C83.6993 270.788 83.8868 270.818 84.0838 270.818C84.2315 270.818 84.3527 270.811 84.4474 270.795C84.5421 270.777 84.6179 270.761 84.6747 270.75L84.9474 271.955C84.8565 271.989 84.7296 272.023 84.5668 272.057C84.4039 272.095 84.1974 272.114 83.9474 272.114C83.5687 272.114 83.1974 272.032 82.8338 271.869C82.474 271.706 82.1747 271.458 81.9361 271.125C81.7012 270.792 81.5838 270.371 81.5838 269.864V261.182ZM86.8054 272V263.273H88.1463V272H86.8054ZM87.4872 261.818C87.2259 261.818 87.0005 261.729 86.8111 261.551C86.6255 261.373 86.5327 261.159 86.5327 260.909C86.5327 260.659 86.6255 260.445 86.8111 260.267C87.0005 260.089 87.2259 260 87.4872 260C87.7486 260 87.9721 260.089 88.1577 260.267C88.3471 260.445 88.4418 260.659 88.4418 260.909C88.4418 261.159 88.3471 261.373 88.1577 261.551C87.9721 261.729 87.7486 261.818 87.4872 261.818ZM94.1477 272.182C93.3598 272.182 92.6686 271.994 92.0739 271.619C91.483 271.244 91.0208 270.72 90.6875 270.045C90.358 269.371 90.1932 268.583 90.1932 267.682C90.1932 266.773 90.358 265.979 90.6875 265.301C91.0208 264.623 91.483 264.097 92.0739 263.722C92.6686 263.347 93.3598 263.159 94.1477 263.159C94.9356 263.159 95.625 263.347 96.2159 263.722C96.8106 264.097 97.2727 264.623 97.6023 265.301C97.9356 265.979 98.1023 266.773 98.1023 267.682C98.1023 268.583 97.9356 269.371 97.6023 270.045C97.2727 270.72 96.8106 271.244 96.2159 271.619C95.625 271.994 94.9356 272.182 94.1477 272.182ZM94.1477 270.977C94.7462 270.977 95.2386 270.824 95.625 270.517C96.0114 270.21 96.2973 269.807 96.483 269.307C96.6686 268.807 96.7614 268.265 96.7614 267.682C96.7614 267.098 96.6686 266.555 96.483 266.051C96.2973 265.547 96.0114 265.14 95.625 264.83C95.2386 264.519 94.7462 264.364 94.1477 264.364C93.5492 264.364 93.0568 264.519 92.6705 264.83C92.2841 265.14 91.9981 265.547 91.8125 266.051C91.6269 266.555 91.5341 267.098 91.5341 267.682C91.5341 268.265 91.6269 268.807 91.8125 269.307C91.9981 269.807 92.2841 270.21 92.6705 270.517C93.0568 270.824 93.5492 270.977 94.1477 270.977ZM101.49 266.75V272H100.149V263.273H101.445V264.636H101.558C101.763 264.193 102.073 263.837 102.49 263.568C102.907 263.295 103.445 263.159 104.104 263.159C104.695 263.159 105.212 263.28 105.655 263.523C106.098 263.761 106.443 264.125 106.689 264.614C106.935 265.098 107.058 265.712 107.058 266.455V272H105.717V266.545C105.717 265.86 105.539 265.326 105.183 264.943C104.827 264.557 104.339 264.364 103.717 264.364C103.289 264.364 102.907 264.456 102.57 264.642C102.236 264.828 101.973 265.098 101.78 265.455C101.587 265.811 101.49 266.242 101.49 266.75Z" fill="#848484"/>
<defs>
<linearGradient id="paint0_linear_222_658" x1="-40.7143" y1="-42.8571" x2="88.9564" y2="31.3401" gradientUnits="userSpaceOnUse">
<stop stop-color="#6857F6"/>
<stop offset="1" stop-color="white" stop-opacity="0"/>
</linearGradient>
<linearGradient id="paint1_linear_222_658" x1="-371" y1="58.1429" x2="-319.008" y2="349.687" gradientUnits="userSpaceOnUse">
<stop stop-color="#6857F6"/>
<stop offset="1" stop-color="white" stop-opacity="0"/>
</linearGradient>
<linearGradient id="paint2_linear_222_658" x1="-371" y1="128.143" x2="-319.008" y2="419.687" gradientUnits="userSpaceOnUse">
<stop stop-color="#6857F6"/>
<stop offset="1" stop-color="white" stop-opacity="0"/>
</linearGradient>
<linearGradient id="paint3_linear_222_658" x1="-371" y1="198.143" x2="-319.008" y2="489.687" gradientUnits="userSpaceOnUse">
<stop stop-color="#6857F6"/>
<stop offset="1" stop-color="white" stop-opacity="0"/>
</linearGradient>
<linearGradient id="paint4_linear_222_658" x1="383.012" y1="53.6563" x2="403.787" y2="54.78" gradientUnits="userSpaceOnUse">
<stop stop-color="#6857F6"/>
<stop offset="1" stop-color="#A549E2"/>
</linearGradient>
</defs>
</svg>
