<svg width="1002" height="380" viewBox="0 0 1002 380" fill="none" xmlns="http://www.w3.org/2000/svg">
<mask id="path-1-inside-1_109_7" fill="white">
<path d="M1002 -202C1002 -125.571 989.041 -49.8897 963.864 20.7218C938.686 91.3333 901.783 155.492 855.26 209.536C808.738 263.58 753.509 306.45 692.724 335.698C631.94 364.946 566.792 380 501 380C435.208 380 370.06 364.946 309.276 335.698C248.491 306.45 193.262 263.58 146.739 209.536C100.217 155.492 63.3139 91.3332 38.1363 20.7217C12.9587 -49.8898 -5.75174e-06 -125.571 0 -202L501 -202H1002Z"/>
</mask>
<path d="M1002 -202C1002 -125.571 989.041 -49.8897 963.864 20.7218C938.686 91.3333 901.783 155.492 855.26 209.536C808.738 263.58 753.509 306.45 692.724 335.698C631.94 364.946 566.792 380 501 380C435.208 380 370.06 364.946 309.276 335.698C248.491 306.45 193.262 263.58 146.739 209.536C100.217 155.492 63.3139 91.3332 38.1363 20.7217C12.9587 -49.8898 -5.75174e-06 -125.571 0 -202L501 -202H1002Z" stroke="#2C2D2F" stroke-width="2" stroke-dasharray="8 15" mask="url(#path-1-inside-1_109_7)"/>
</svg>
