<svg width="1681" height="582" viewBox="0 0 1681 582" fill="none" xmlns="http://www.w3.org/2000/svg">
<mask id="path-1-inside-1_109_10" fill="white">
<path d="M1681 0C1681 76.4293 1659.26 152.11 1617.02 222.722C1574.78 293.333 1512.87 357.492 1434.82 411.536C1356.78 465.58 1264.12 508.45 1162.15 537.698C1060.17 566.946 950.876 582 840.5 582C730.124 582 620.829 566.946 518.855 537.698C416.88 508.45 324.224 465.58 246.177 411.536C168.129 357.492 106.218 293.333 63.9792 222.722C21.7402 152.11 -9.64938e-06 76.4293 0 -5.08801e-05L840.5 0H1681Z"/>
</mask>
<path d="M1681 0C1681 76.4293 1659.26 152.11 1617.02 222.722C1574.78 293.333 1512.87 357.492 1434.82 411.536C1356.78 465.58 1264.12 508.45 1162.15 537.698C1060.17 566.946 950.876 582 840.5 582C730.124 582 620.829 566.946 518.855 537.698C416.88 508.45 324.224 465.58 246.177 411.536C168.129 357.492 106.218 293.333 63.9792 222.722C21.7402 152.11 -9.64938e-06 76.4293 0 -5.08801e-05L840.5 0H1681Z" stroke="#2C2D2F" stroke-width="2" stroke-dasharray="8 15" mask="url(#path-1-inside-1_109_10)"/>
</svg>
